<?xml version="1.0" encoding="utf-8"?>
<!-- Generator: Adobe Illustrator 27.2.0, SVG Export Plug-In . SVG Version: 6.00 Build 0)  -->
<svg version="1.1" id="Layer_1" xmlns="http://www.w3.org/2000/svg" xmlns:xlink="http://www.w3.org/1999/xlink" x="0px" y="0px"
	 viewBox="0 0 2552.59 1853.42" style="enable-background:new 0 0 2552.59 1853.42;" xml:space="preserve">
<style type="text/css">
	.st0{fill:none;stroke:#8C8C8C;stroke-width:15.3977;stroke-miterlimit:10;}
	.st1{display:none;fill:none;stroke:#8C8C8C;stroke-width:15.3977;stroke-miterlimit:10;}
	.st2{fill:#5D6069;}
	.st3{font-family:'Gotham-Bold';}
	.st4{font-size:382.4663px;}
	.st5{fill:none;stroke:#5D6069;stroke-width:21.7298;stroke-miterlimit:10;}
	.st6{fill:#1DABBF;}
	.st7{fill:#FFFFFF;}
	.st8{fill:#0A5B5F;}
	.st9{fill:#C84F27;}
	.st10{fill:#C84F27;stroke:#FFFFFF;stroke-width:6.5542;stroke-miterlimit:10;}
	.st11{fill:#D69129;}
	.st12{fill:#D69129;stroke:#FFFFFF;stroke-width:10.1955;stroke-miterlimit:10;}
	.st13{fill:#DBB927;}
	.st14{fill:#E6B2CA;}
	.st15{fill:#D83A5F;}
	.st16{fill:#DC4C6E;}
	.st17{fill:#B12240;}
	.st18{fill:#CA5838;}
	.st19{fill:#BB3726;}
	.st20{fill:#84378B;}
	.st21{fill:#552669;}
	.st22{fill:#2A8E53;}
	.st23{fill:#94B33D;}
	.st24{fill:#75A03F;}
	.st25{fill:#A9B6BC;}
	.st26{fill:#77828A;}
	.st27{fill:#A3AAAF;}
	.st28{fill:#278041;}
	.st29{fill:#E57DA1;}
	.st30{fill:#D75669;}
	.st31{fill:#92283B;}
	.st32{fill:#A52D45;}
	.st33{fill:#992934;}
	.st34{fill:#90519C;}
	.st35{fill:#612B7D;}
	.st36{fill:#E0B135;}
	.st37{fill:#DAB526;}
	.st38{fill:#4DC7E4;}
	.st39{fill:#797A79;}
	.st40{font-family:'Gotham-Book';}
	.st41{font-size:55.7851px;}
	.st42{font-size:101.356px;}
	.st43{font-size:66.6909px;}
</style>
<g id="Layer_1_00000113319473163751105410000007346637405110501000_">
</g>
<g id="Layer_2_00000183237837365092315810000000466773193004017334_">
</g>
<g id="Layer_4">
	<line class="st0" x1="1162.29" y1="249.5" x2="947.09" y2="408.6"/>
	<line class="st1" x1="1425.19" y1="445.37" x2="1231.44" y2="512.74"/>
	<line class="st0" x1="1631.29" y1="532.14" x2="1425.19" y2="445.37"/>
	<line class="st0" x1="1952.42" y1="520.1" x2="1506.01" y2="243.75"/>
	<line class="st1" x1="522.26" y1="960.69" x2="804.92" y2="1019.46"/>
	<line class="st0" x1="875.91" y1="673.92" x2="1196.51" y2="875.74"/>
	<line class="st1" x1="700.03" y1="812.42" x2="980.97" y2="936"/>
	<line class="st1" x1="1470.43" y1="1019.46" x2="1196.51" y2="875.74"/>
	<line class="st1" x1="1436.66" y1="670.95" x2="1660.15" y2="842.71"/>
</g>
<g>
	<text transform="matrix(1 0 0 1 1041.7458 1635.0961)" class="st2 st3 st4">Q1K</text>
</g>
<line class="st5" x1="1370.48" y1="1154.37" x2="1240.14" y2="1198.12"/>
<g>
	<line class="st0" x1="1215.44" y1="655.67" x2="867.98" y2="639.15"/>
	<line class="st0" x1="867.98" y1="639.15" x2="947.09" y2="408.6"/>
	<line class="st0" x1="688.49" y1="484.13" x2="872.06" y2="645.22"/>
	<line class="st0" x1="1158.45" y1="231.46" x2="1496.79" y2="242.83"/>
	<line class="st0" x1="1219.06" y1="516.49" x2="1158.45" y2="231.46"/>
	<line class="st0" x1="947.09" y1="408.6" x2="1219.06" y2="516.49"/>
	<line class="st0" x1="1215.44" y1="655.67" x2="947.09" y2="408.6"/>
	<line class="st0" x1="1423.34" y1="404.11" x2="1496.79" y2="242.83"/>
	<line class="st0" x1="688.49" y1="484.13" x2="947.09" y2="408.6"/>
	<line class="st0" x1="416.64" y1="652.53" x2="688.49" y2="484.13"/>
	<line class="st0" x1="511.6" y1="929.02" x2="416.64" y2="672.76"/>
	<line class="st0" x1="800.54" y1="998.98" x2="970.43" y2="917.99"/>
	<line class="st0" x1="1158.45" y1="840.43" x2="970.43" y2="917.99"/>
	<line class="st0" x1="1433.87" y1="639.15" x2="1423.34" y2="404.11"/>
	<line class="st0" x1="1625.77" y1="502.25" x2="1433.87" y2="639.15"/>
	<line class="st0" x1="1324.09" y1="706.38" x2="1152.6" y2="842.84"/>
	<line class="st0" x1="1433.87" y1="639.15" x2="1324.09" y2="706.38"/>
	<line class="st0" x1="1944.48" y1="502.25" x2="1625.77" y2="502.25"/>
	<line class="st0" x1="1989.36" y1="727.96" x2="1944.48" y2="502.25"/>
	<line class="st0" x1="1640.37" y1="784.95" x2="1989.36" y2="727.96"/>
	<line class="st0" x1="1861.66" y1="978.41" x2="1640.37" y2="784.95"/>
	<line class="st0" x1="1868.95" y1="973.88" x2="1655.77" y2="1098.38"/>
	<line class="st0" x1="1465.91" y1="1004.06" x2="1433.87" y2="639.15"/>
	<line class="st0" x1="1113.06" y1="1075.69" x2="1465.91" y2="1004.06"/>
	<line class="st0" x1="923.21" y1="1121.08" x2="1113.06" y2="1075.69"/>
	<line class="st0" x1="800.54" y1="998.98" x2="923.21" y2="1121.08"/>
	<line class="st0" x1="888.81" y1="1326.34" x2="925.78" y2="1124.2"/>
	<line class="st0" x1="970.43" y1="917.99" x2="1113.06" y2="1075.69"/>
	<line class="st0" x1="1240.14" y1="1198.12" x2="1113.06" y2="1075.69"/>
	<line class="st0" x1="889.52" y1="1312.07" x2="829.96" y2="1426.96"/>
	<line class="st0" x1="826.74" y1="1566.63" x2="829.96" y2="1426.96"/>
	<line class="st0" x1="721.28" y1="1436.57" x2="826.74" y2="1566.63"/>
	<line class="st0" x1="889.52" y1="1312.07" x2="977.49" y2="1464.68"/>
	<line class="st0" x1="511.6" y1="929.02" x2="872.06" y2="645.22"/>
</g>
<g>
	<path class="st6" d="M431.4,630.55c-7.08,4.19-15.32,6.64-24.15,6.64s-17.07-2.45-24.15-6.64c-36.4,10.48-63.03,44-63.03,83.77
		c0,2.5,0.13,4.97,0.34,7.42c23.67,19.34,53.9,30.95,86.85,30.95s63.18-11.61,86.85-30.95c0.21-2.45,0.34-4.92,0.34-7.42
		C494.43,674.55,467.8,641.02,431.4,630.55z"/>
	<g>
		<g>
			<path class="st6" d="M407.25,642.57c-29.17,0-52.9-23.73-52.9-52.9s23.73-52.9,52.9-52.9s52.9,23.73,52.9,52.9
				S436.42,642.57,407.25,642.57z"/>
			<g>
				<path class="st7" d="M407.25,542.14c26.25,0,47.53,21.28,47.53,47.53s-21.28,47.53-47.53,47.53s-47.53-21.28-47.53-47.53
					C359.72,563.42,381,542.14,407.25,542.14 M407.25,531.39c-32.14,0-58.28,26.14-58.28,58.28s26.14,58.28,58.28,58.28
					s58.28-26.14,58.28-58.28S439.38,531.39,407.25,531.39L407.25,531.39z"/>
			</g>
		</g>
	</g>
</g>
<g>
	<path class="st8" d="M534.75,912.49c-5.59,3.31-12.09,5.24-19.06,5.24s-13.47-1.93-19.06-5.24c-28.73,8.27-49.75,34.73-49.75,66.12
		c0,1.97,0.1,3.92,0.27,5.85c18.68,15.26,42.54,24.43,68.55,24.43s49.87-9.16,68.55-24.43c0.16-1.93,0.26-3.88,0.26-5.85
		C584.5,947.22,563.48,920.76,534.75,912.49z"/>
	<g>
		<g>
			<path class="st8" d="M515.69,921.98c-23.02,0-41.75-18.73-41.75-41.76c0-23.02,18.73-41.75,41.75-41.75
				c23.02,0,41.75,18.73,41.75,41.75C557.44,903.25,538.71,921.98,515.69,921.98z"/>
			<g>
				<path class="st7" d="M515.69,842.71c20.72,0,37.51,16.79,37.51,37.51s-16.79,37.51-37.51,37.51
					c-20.72,0-37.51-16.79-37.51-37.51S494.97,842.71,515.69,842.71 M515.69,834.22c-25.36,0-46,20.63-46,46c0,25.36,20.64,46,46,46
					s46-20.63,46-46C561.69,854.86,541.05,834.22,515.69,834.22L515.69,834.22z"/>
			</g>
		</g>
	</g>
</g>
<g>
	<path class="st9" d="M700.42,475.34c-5.19,3.07-11.23,4.87-17.7,4.87s-12.51-1.8-17.7-4.87c-26.68,7.68-46.2,32.25-46.2,61.4
		c0,1.83,0.1,3.64,0.25,5.44c17.35,14.17,39.5,22.68,63.65,22.68s46.31-8.51,63.65-22.68c0.15-1.79,0.25-3.6,0.25-5.44
		C746.62,507.59,727.1,483.02,700.42,475.34z"/>
	<g>
		<circle class="st10" cx="682.72" cy="445.37" r="34.83"/>
	</g>
</g>
<g>
	<path class="st11" d="M987.47,363.24c-9.57,5.67-20.71,8.98-32.64,8.98s-23.07-3.31-32.64-8.98
		c-49.19,14.16-85.2,59.47-85.2,113.22c0,3.38,0.18,6.72,0.46,10.03c31.99,26.14,72.85,41.83,117.38,41.83s85.39-15.69,117.39-41.83
		c0.28-3.31,0.45-6.65,0.45-10.03C1072.67,422.71,1036.67,377.4,987.47,363.24z"/>
	<g>
		<circle class="st12" cx="954.83" cy="307.98" r="64.24"/>
	</g>
</g>
<g>
	<path class="st13" d="M1179.25,216.01c-5.86,3.47-12.69,5.5-19.99,5.5s-14.13-2.03-19.99-5.5c-30.13,8.67-52.19,36.43-52.19,69.35
		c0,2.07,0.11,4.11,0.28,6.14c19.6,16.01,44.62,25.62,71.9,25.62s52.31-9.61,71.9-25.62c0.17-2.03,0.28-4.07,0.28-6.14
		C1231.44,252.44,1209.39,224.68,1179.25,216.01z"/>
	<g>
		<g>
			<path class="st13" d="M1159.26,225.97c-24.15,0-43.8-19.65-43.8-43.8s19.65-43.8,43.8-43.8s43.8,19.65,43.8,43.8
				S1183.41,225.97,1159.26,225.97z"/>
			<g>
				<path class="st7" d="M1159.26,142.82c21.73,0,39.35,17.62,39.35,39.35s-17.62,39.35-39.35,39.35s-39.35-17.62-39.35-39.35
					C1119.91,160.43,1137.53,142.82,1159.26,142.82 M1159.26,133.91c-26.61,0-48.25,21.65-48.25,48.25s21.65,48.25,48.25,48.25
					s48.25-21.65,48.25-48.25S1185.86,133.91,1159.26,133.91L1159.26,133.91z"/>
			</g>
		</g>
	</g>
</g>
<g>
	<path class="st14" d="M1520.7,212.34c-4.31,2.55-9.32,4.04-14.69,4.04s-10.38-1.49-14.69-4.04c-22.15,6.37-38.35,26.77-38.35,50.97
		c0,1.52,0.08,3.02,0.21,4.51c14.4,11.77,32.8,18.83,52.84,18.83c20.05,0,38.44-7.06,52.84-18.83c0.13-1.49,0.2-2.99,0.2-4.51
		C1559.06,239.11,1542.85,218.72,1520.7,212.34z"/>
	<g>
		<g>
			<path class="st14" d="M1506.01,219.66c-17.75,0-32.19-14.44-32.19-32.19s14.44-32.19,32.19-32.19s32.19,14.44,32.19,32.19
				S1523.76,219.66,1506.01,219.66z"/>
			<g>
				<path class="st7" d="M1506.01,158.55c15.97,0,28.92,12.95,28.92,28.92s-12.95,28.92-28.92,28.92
					c-15.97,0-28.92-12.95-28.92-28.92S1490.04,158.55,1506.01,158.55 M1506.01,152c-19.55,0-35.46,15.91-35.46,35.46
					s15.91,35.46,35.46,35.46s35.46-15.91,35.46-35.46S1525.56,152,1506.01,152L1506.01,152z"/>
			</g>
		</g>
	</g>
</g>
<g>
	<path class="st15" d="M1453.45,387.1c-7.29,4.31-15.76,6.84-24.84,6.84s-17.55-2.52-24.84-6.84
		c-37.44,10.78-64.84,45.26-64.84,86.17c0,2.57,0.13,5.11,0.35,7.63c24.35,19.89,55.44,31.84,89.34,31.84
		c33.89,0,64.99-11.94,89.34-31.84c0.21-2.52,0.35-5.06,0.35-7.63C1518.29,432.36,1490.89,397.88,1453.45,387.1z"/>
	<g>
		<g>
			<circle class="st15" cx="1428.61" cy="345.05" r="54.42"/>
			<g>
				<path class="st7" d="M1428.61,296.16c27,0,48.89,21.89,48.89,48.89s-21.89,48.89-48.89,48.89s-48.89-21.89-48.89-48.89
					S1401.61,296.16,1428.61,296.16 M1428.61,285.1c-33.06,0-59.95,26.89-59.95,59.95s26.89,59.95,59.95,59.95
					c33.06,0,59.95-26.89,59.95-59.95S1461.66,285.1,1428.61,285.1L1428.61,285.1z"/>
			</g>
		</g>
	</g>
</g>
<g>
	<path class="st16" d="M1643.24,492.96c-5.12,3.03-11.08,4.81-17.47,4.81s-12.34-1.77-17.47-4.81
		c-26.33,7.58-45.59,31.83-45.59,60.59c0,1.81,0.09,3.59,0.24,5.37c17.12,13.99,38.99,22.39,62.82,22.39s45.7-8.4,62.82-22.39
		c0.15-1.77,0.24-3.56,0.24-5.37C1688.84,524.79,1669.57,500.54,1643.24,492.96z"/>
	<g>
		<g>
			<path class="st16" d="M1625.77,501.66c-21.1,0-38.27-17.17-38.27-38.27s17.17-38.27,38.27-38.27s38.27,17.17,38.27,38.27
				S1646.87,501.66,1625.77,501.66z"/>
			<g>
				<path class="st7" d="M1625.77,429.01c18.99,0,34.38,15.39,34.38,34.38s-15.39,34.38-34.38,34.38s-34.38-15.39-34.38-34.38
					S1606.79,429.01,1625.77,429.01 M1625.77,421.24c-23.25,0-42.16,18.91-42.16,42.16s18.91,42.16,42.16,42.16
					s42.16-18.91,42.16-42.16S1649.02,421.24,1625.77,421.24L1625.77,421.24z"/>
			</g>
		</g>
	</g>
</g>
<g>
	<path class="st17" d="M1450.22,630.71c-4.72,2.8-10.22,4.43-16.11,4.43s-11.38-1.63-16.11-4.43
		c-24.27,6.99-42.04,29.34-42.04,55.87c0,1.67,0.09,3.31,0.22,4.95c15.78,12.9,35.95,20.64,57.92,20.64s42.14-7.74,57.92-20.64
		c0.14-1.63,0.22-3.28,0.22-4.95C1492.26,660.06,1474.5,637.7,1450.22,630.71z"/>
	<g>
		<g>
			<circle class="st17" cx="1434.12" cy="603.45" r="35.28"/>
			<g>
				<path class="st7" d="M1434.12,571.75c17.51,0,31.7,14.19,31.7,31.7s-14.19,31.7-31.7,31.7s-31.7-14.19-31.7-31.7
					S1416.61,571.75,1434.12,571.75 M1434.12,564.58c-21.43,0-38.87,17.44-38.87,38.87s17.44,38.87,38.87,38.87
					s38.87-17.44,38.87-38.87C1472.98,582.02,1455.55,564.58,1434.12,564.58L1434.12,564.58z"/>
			</g>
		</g>
	</g>
</g>
<g>
	<path class="st18" d="M1322.26,670.95c-3.17,1.88-6.86,2.97-10.81,2.97s-7.64-1.1-10.81-2.97c-16.29,4.69-28.21,19.69-28.21,37.48
		c0,1.12,0.06,2.22,0.15,3.32c10.59,8.65,24.12,13.85,38.86,13.85s28.27-5.2,38.86-13.85c0.09-1.1,0.15-2.2,0.15-3.32
		C1350.46,690.64,1338.54,675.64,1322.26,670.95z"/>
	<g>
		<g>
			<circle class="st18" cx="1311.45" cy="652.66" r="23.67"/>
			<g>
				<path class="st7" d="M1311.45,631.39c11.75,0,21.27,9.52,21.27,21.27s-9.52,21.27-21.27,21.27s-21.27-9.52-21.27-21.27
					C1290.18,640.91,1299.7,631.39,1311.45,631.39 M1311.45,626.58c-14.38,0-26.08,11.7-26.08,26.08s11.7,26.08,26.08,26.08
					s26.08-11.7,26.08-26.08C1337.53,638.28,1325.83,626.58,1311.45,626.58L1311.45,626.58z"/>
			</g>
		</g>
	</g>
</g>
<g>
	<path class="st19" d="M1213.45,626.97c-3.43,2.03-7.43,3.22-11.71,3.22c-4.28,0-8.27-1.19-11.71-3.22
		c-17.65,5.08-30.56,21.33-30.56,40.62c0,1.21,0.06,2.41,0.16,3.6c11.48,9.38,26.13,15.01,42.11,15.01s30.63-5.63,42.11-15.01
		c0.1-1.19,0.16-2.38,0.16-3.6C1244.02,648.3,1231.1,632.05,1213.45,626.97z"/>
	<g>
		<g>
			<path class="st19" d="M1201.74,632.8c-14.14,0-25.65-11.51-25.65-25.65s11.51-25.65,25.65-25.65s25.65,11.51,25.65,25.65
				S1215.89,632.8,1201.74,632.8z"/>
			<g>
				<path class="st7" d="M1201.74,584.1c12.73,0,23.04,10.32,23.04,23.04s-10.32,23.04-23.04,23.04s-23.04-10.32-23.04-23.04
					S1189.02,584.1,1201.74,584.1 M1201.74,578.89c-15.58,0-28.26,12.68-28.26,28.26s12.68,28.26,28.26,28.26
					s28.26-12.68,28.26-28.26S1217.33,578.89,1201.74,578.89L1201.74,578.89z"/>
			</g>
		</g>
	</g>
</g>
<g>
	<path class="st20" d="M1211.75,804.68c-8.24,4.88-17.83,7.73-28.1,7.73s-19.86-2.85-28.1-7.73
		c-42.35,12.19-73.34,51.19-73.34,97.47c0,2.91,0.15,5.78,0.39,8.63c27.54,22.5,62.71,36.01,101.05,36.01
		c38.34,0,73.51-13.51,101.05-36.01c0.24-2.85,0.39-5.72,0.39-8.63C1285.09,855.88,1254.09,816.87,1211.75,804.68z"/>
	<g>
		<g>
			<circle class="st20" cx="1183.65" cy="757.12" r="61.55"/>
			<g>
				<path class="st7" d="M1183.65,701.82c30.54,0,55.3,24.76,55.3,55.3s-24.76,55.3-55.3,55.3s-55.3-24.76-55.3-55.3
					S1153.11,701.82,1183.65,701.82 M1183.65,689.31c-37.39,0-67.81,30.42-67.81,67.81s30.42,67.81,67.81,67.81
					s67.81-30.42,67.81-67.81C1251.46,719.73,1221.04,689.31,1183.65,689.31L1183.65,689.31z"/>
			</g>
		</g>
	</g>
</g>
<g>
	<path class="st21" d="M989.06,905.89c-4.26,2.52-9.22,4-14.53,4s-10.27-1.47-14.53-4c-21.9,6.3-37.92,26.47-37.92,50.39
		c0,1.5,0.08,2.99,0.2,4.46c14.24,11.63,32.42,18.62,52.25,18.62s38.01-6.98,52.25-18.62c0.12-1.47,0.2-2.96,0.2-4.46
		C1026.98,932.36,1010.96,912.19,989.06,905.89z"/>
	<g>
		<g>
			<circle class="st21" cx="974.54" cy="881.29" r="31.83"/>
			<g>
				<path class="st7" d="M974.54,852.7c15.79,0,28.59,12.8,28.59,28.59c0,15.79-12.8,28.59-28.59,28.59
					c-15.79,0-28.59-12.8-28.59-28.59C945.94,865.5,958.75,852.7,974.54,852.7 M974.54,846.23c-19.33,0-35.06,15.73-35.06,35.06
					s15.73,35.06,35.06,35.06s35.06-15.73,35.06-35.06S993.87,846.23,974.54,846.23L974.54,846.23z"/>
			</g>
		</g>
	</g>
</g>
<g>
	<path class="st22" d="M809.12,991.48c-3.25,1.92-7.02,3.05-11.07,3.05s-7.82-1.12-11.07-3.05c-16.68,4.8-28.89,20.16-28.89,38.39
		c0,1.15,0.06,2.28,0.15,3.4c10.85,8.86,24.7,14.18,39.8,14.18s28.95-5.32,39.8-14.18c0.09-1.12,0.15-2.25,0.15-3.4
		C838,1011.64,825.8,996.28,809.12,991.48z"/>
	<g>
		<g>
			<circle class="st22" cx="798.05" cy="972.74" r="24.24"/>
			<g>
				<path class="st7" d="M798.05,950.96c12.03,0,21.78,9.75,21.78,21.78s-9.75,21.78-21.78,21.78s-21.78-9.75-21.78-21.78
					S786.02,950.96,798.05,950.96 M798.05,946.04c-14.73,0-26.71,11.98-26.71,26.71s11.98,26.71,26.71,26.71
					s26.71-11.98,26.71-26.71S812.78,946.04,798.05,946.04L798.05,946.04z"/>
			</g>
		</g>
	</g>
</g>
<g>
	<path class="st23" d="M949.17,1114.05c-7.24,4.29-15.66,6.79-24.68,6.79s-17.44-2.5-24.68-6.79
		c-37.2,10.71-64.42,44.97-64.42,85.62c0,2.56,0.13,5.08,0.34,7.58c24.19,19.76,55.09,31.63,88.76,31.63
		c33.68,0,64.57-11.87,88.76-31.63c0.21-2.5,0.34-5.03,0.34-7.58C1013.59,1159.03,986.37,1124.76,949.17,1114.05z"/>
	<g>
		<g>
			<path class="st23" d="M924.49,1126.34c-29.81,0-54.07-24.26-54.07-54.07s24.26-54.07,54.07-54.07s54.07,24.26,54.07,54.07
				S954.3,1126.34,924.49,1126.34z"/>
			<g>
				<path class="st7" d="M924.49,1023.7c26.83,0,48.57,21.75,48.57,48.57c0,26.83-21.75,48.57-48.57,48.57
					c-26.83,0-48.57-21.75-48.57-48.57C875.91,1045.44,897.66,1023.7,924.49,1023.7 M924.49,1012.71
					c-32.84,0-59.57,26.72-59.57,59.57s26.72,59.57,59.57,59.57s59.57-26.72,59.57-59.57S957.33,1012.71,924.49,1012.71
					L924.49,1012.71z"/>
			</g>
		</g>
	</g>
</g>
<g>
	<path class="st24" d="M910.02,1313.61c-4.95,2.93-10.71,4.64-16.88,4.64s-11.93-1.71-16.88-4.64
		c-25.44,7.32-44.06,30.75-44.06,58.55c0,1.75,0.09,3.47,0.24,5.18c16.54,13.52,37.67,21.63,60.7,21.63s44.16-8.12,60.7-21.63
		c0.14-1.71,0.23-3.44,0.23-5.18C954.07,1344.36,935.46,1320.93,910.02,1313.61z"/>
	<g>
		<g>
			<path class="st24" d="M893.14,1322.01c-20.39,0-36.98-16.59-36.98-36.98s16.59-36.98,36.98-36.98
				c20.39,0,36.98,16.59,36.98,36.98C930.11,1305.42,913.53,1322.01,893.14,1322.01z"/>
			<g>
				<path class="st7" d="M893.14,1251.81c18.35,0,33.22,14.87,33.22,33.22s-14.87,33.22-33.22,33.22s-33.22-14.87-33.22-33.22
					C859.92,1266.69,874.79,1251.81,893.14,1251.81 M893.14,1244.3c-22.46,0-40.73,18.27-40.73,40.73s18.27,40.74,40.73,40.74
					s40.73-18.27,40.73-40.74S915.6,1244.3,893.14,1244.3L893.14,1244.3z"/>
			</g>
		</g>
	</g>
</g>
<g>
	<path class="st25" d="M841.93,1439.64c-3.66,2.17-7.91,3.43-12.47,3.43s-8.81-1.27-12.47-3.43c-18.79,5.41-32.55,22.72-32.55,43.26
		c0,1.29,0.07,2.57,0.17,3.83c12.22,9.99,27.83,15.98,44.85,15.98s32.62-6,44.85-15.98c0.11-1.26,0.17-2.54,0.17-3.83
		C874.48,1462.36,860.73,1445.05,841.93,1439.64z"/>
	<g>
		<g>
			<path class="st25" d="M829.46,1445.85c-15.06,0-27.32-12.25-27.32-27.32c0-15.06,12.25-27.32,27.32-27.32
				c15.06,0,27.32,12.25,27.32,27.32C856.78,1433.59,844.53,1445.85,829.46,1445.85z"/>
			<g>
				<path class="st7" d="M829.46,1393.99c13.55,0,24.54,10.99,24.54,24.54s-10.99,24.54-24.54,24.54s-24.54-10.99-24.54-24.54
					C804.92,1404.98,815.91,1393.99,829.46,1393.99 M829.46,1388.44c-16.59,0-30.09,13.5-30.09,30.1c0,16.59,13.5,30.09,30.09,30.09
					s30.1-13.5,30.1-30.09C859.56,1401.94,846.06,1388.44,829.46,1388.44L829.46,1388.44z"/>
			</g>
		</g>
	</g>
</g>
<g>
	<path class="st26" d="M733,1427.88c-2.86,1.69-6.19,2.68-9.75,2.68c-3.57,0-6.89-0.99-9.75-2.68
		c-14.7,4.23-25.46,17.77-25.46,33.83c0,1.01,0.05,2.01,0.14,3c9.56,7.81,21.77,12.5,35.07,12.5s25.51-4.69,35.07-12.5
		c0.08-0.99,0.14-1.99,0.14-3C758.45,1445.65,747.69,1432.11,733,1427.88z"/>
	<g>
		<g>
			<path class="st26" d="M723.24,1432.74c-11.78,0-21.37-9.58-21.37-21.36s9.58-21.37,21.37-21.37s21.37,9.58,21.37,21.37
				S735.02,1432.74,723.24,1432.74z"/>
			<g>
				<path class="st7" d="M723.24,1392.18c10.6,0,19.19,8.59,19.19,19.19s-8.59,19.19-19.19,19.19s-19.19-8.59-19.19-19.19
					S712.64,1392.18,723.24,1392.18 M723.24,1387.84c-12.98,0-23.54,10.56-23.54,23.54s10.56,23.54,23.54,23.54
					s23.54-10.56,23.54-23.54C746.78,1398.4,736.22,1387.84,723.24,1387.84L723.24,1387.84z"/>
			</g>
		</g>
	</g>
</g>
<g>
	<path class="st2" d="M832.42,1570.93c-3.69,2.19-7.99,3.47-12.59,3.47c-4.6,0-8.9-1.28-12.59-3.47
		c-18.98,5.46-32.87,22.95-32.87,43.69c0,1.3,0.07,2.59,0.18,3.87c12.34,10.08,28.11,16.14,45.29,16.14s32.95-6.06,45.29-16.14
		c0.11-1.28,0.18-2.56,0.18-3.87C865.3,1593.88,851.4,1576.39,832.42,1570.93z"/>
	<g>
		<g>
			<circle class="st2" cx="819.83" cy="1549.61" r="27.59"/>
			<g>
				<path class="st7" d="M819.83,1524.83c13.69,0,24.78,11.1,24.78,24.79c0,13.69-11.1,24.78-24.78,24.78s-24.79-11.1-24.79-24.78
					C795.04,1535.92,806.14,1524.83,819.83,1524.83 M819.83,1519.22c-16.76,0-30.39,13.63-30.39,30.39s13.63,30.39,30.39,30.39
					s30.39-13.63,30.39-30.39S836.59,1519.22,819.83,1519.22L819.83,1519.22z"/>
			</g>
		</g>
	</g>
</g>
<g>
	<path class="st27" d="M984.93,1452.29c-3.05,1.81-6.6,2.86-10.4,2.86c-3.8,0-7.35-1.06-10.4-2.86
		c-15.67,4.51-27.14,18.94-27.14,36.06c0,1.08,0.06,2.14,0.15,3.19c10.19,8.33,23.2,13.32,37.39,13.32s27.2-5,37.39-13.32
		c0.09-1.05,0.14-2.12,0.14-3.19C1012.07,1471.24,1000.6,1456.8,984.93,1452.29z"/>
	<g>
		<g>
			<circle class="st27" cx="974.54" cy="1434.69" r="22.78"/>
			<g>
				<path class="st7" d="M974.54,1414.23c11.3,0,20.46,9.16,20.46,20.46c0,11.3-9.16,20.46-20.46,20.46s-20.46-9.16-20.46-20.46
					C954.07,1423.39,963.23,1414.23,974.54,1414.23 M974.54,1409.6c-13.83,0-25.09,11.26-25.09,25.09s11.26,25.09,25.09,25.09
					s25.09-11.26,25.09-25.09S988.37,1409.6,974.54,1409.6L974.54,1409.6z"/>
			</g>
		</g>
	</g>
</g>
<g>
	<path class="st28" d="M1132.93,1063.02c-5.61,3.32-12.15,5.27-19.14,5.27c-7,0-13.53-1.94-19.14-5.27
		c-28.85,8.3-49.97,34.88-49.97,66.4c0,1.98,0.1,3.94,0.27,5.88c18.76,15.33,42.72,24.53,68.84,24.53s50.08-9.2,68.84-24.53
		c0.16-1.94,0.27-3.9,0.27-5.88C1182.89,1097.9,1161.78,1071.32,1132.93,1063.02z"/>
	<g>
		<g>
			<path class="st28" d="M1113.78,1072.55c-23.12,0-41.94-18.81-41.94-41.94c0-23.12,18.81-41.94,41.94-41.94
				c23.12,0,41.94,18.81,41.94,41.94C1155.72,1053.74,1136.91,1072.55,1113.78,1072.55z"/>
			<g>
				<path class="st7" d="M1113.78,992.94c20.81,0,37.67,16.87,37.67,37.67c0,20.81-16.87,37.67-37.67,37.67
					c-20.81,0-37.67-16.87-37.67-37.67C1076.11,1009.81,1092.98,992.94,1113.78,992.94 M1113.78,984.41
					c-25.47,0-46.2,20.72-46.2,46.2c0,25.47,20.72,46.2,46.2,46.2c25.47,0,46.2-20.72,46.2-46.2
					C1159.98,1005.14,1139.26,984.41,1113.78,984.41L1113.78,984.41z"/>
			</g>
		</g>
	</g>
</g>
<g>
	<path class="st29" d="M1973.27,487.69c-6.11,3.62-13.22,5.73-20.84,5.73s-14.73-2.11-20.84-5.73c-31.41,9.04-54.4,37.97-54.4,72.29
		c0,2.16,0.11,4.29,0.29,6.4c20.43,16.69,46.51,26.71,74.95,26.71c28.43,0,54.52-10.02,74.95-26.71c0.18-2.11,0.29-4.24,0.29-6.4
		C2027.66,525.67,2004.68,496.73,1973.27,487.69z"/>
	<g>
		<g>
			<circle class="st29" cx="1952.42" cy="452.41" r="45.66"/>
			<g>
				<path class="st7" d="M1952.42,411.4c22.65,0,41.01,18.36,41.01,41.02c0,22.65-18.36,41.01-41.01,41.01s-41.01-18.36-41.01-41.01
					C1911.41,429.76,1929.77,411.4,1952.42,411.4 M1952.42,402.12c-27.73,0-50.3,22.56-50.3,50.3c0,27.73,22.56,50.3,50.3,50.3
					s50.3-22.56,50.3-50.3C2002.72,424.68,1980.16,402.12,1952.42,402.12L1952.42,402.12z"/>
			</g>
		</g>
	</g>
</g>
<g>
	<path class="st30" d="M2017.07,718.1c-6.93,4.1-14.99,6.5-23.63,6.5s-16.7-2.4-23.63-6.5c-35.61,10.25-61.67,43.05-61.67,81.96
		c0,2.45,0.13,4.86,0.33,7.26c23.16,18.92,52.73,30.28,84.97,30.28s61.81-11.36,84.97-30.28c0.2-2.39,0.33-4.81,0.33-7.26
		C2078.74,761.15,2052.68,728.35,2017.07,718.1z"/>
	<g>
		<g>
			<circle class="st30" cx="1993.44" cy="678.1" r="51.76"/>
			<g>
				<path class="st7" d="M1993.44,631.6c25.68,0,46.5,20.82,46.5,46.5s-20.82,46.5-46.5,46.5s-46.5-20.82-46.5-46.5
					S1967.76,631.6,1993.44,631.6 M1993.44,621.08c-31.44,0-57.02,25.58-57.02,57.02s25.58,57.02,57.02,57.02
					s57.02-25.58,57.02-57.02S2024.88,621.08,1993.44,621.08L1993.44,621.08z"/>
			</g>
		</g>
	</g>
</g>
<g>
	<path class="st31" d="M1676.52,763.51c-8.52,5.04-18.43,7.99-29.05,7.99s-20.53-2.95-29.05-7.99
		c-43.78,12.6-75.81,52.92-75.81,100.75c0,3.01,0.16,5.98,0.41,8.92c28.47,23.26,64.82,37.22,104.45,37.22s75.99-13.96,104.45-37.22
		c0.25-2.94,0.4-5.91,0.4-8.92C1752.33,816.43,1720.29,776.1,1676.52,763.51z"/>
	<g>
		<g>
			<circle class="st31" cx="1647.47" cy="714.34" r="63.63"/>
			<g>
				<path class="st7" d="M1647.47,657.18c31.57,0,57.16,25.59,57.16,57.16c0,31.57-25.59,57.16-57.16,57.16
					c-31.57,0-57.16-25.59-57.16-57.16C1590.31,682.77,1615.9,657.18,1647.47,657.18 M1647.47,644.24
					c-38.65,0-70.1,31.44-70.1,70.09c0,38.65,31.44,70.1,70.1,70.1c38.65,0,70.09-31.44,70.09-70.1
					C1717.56,675.69,1686.12,644.24,1647.47,644.24L1647.47,644.24z"/>
			</g>
		</g>
	</g>
</g>
<g>
	<path class="st32" d="M1876.72,969.61c-4.1,2.43-8.86,3.84-13.97,3.84s-9.87-1.42-13.97-3.84c-21.05,6.06-36.46,25.45-36.46,48.45
		c0,1.45,0.08,2.87,0.19,4.29c13.69,11.18,31.17,17.9,50.23,17.9s36.54-6.72,50.23-17.9c0.12-1.42,0.19-2.84,0.19-4.29
		C1913.17,995.06,1897.77,975.67,1876.72,969.61z"/>
	<g>
		<g>
			<circle class="st32" cx="1862.75" cy="945.96" r="30.6"/>
			<g>
				<path class="st7" d="M1862.75,918.47c15.18,0,27.49,12.31,27.49,27.49s-12.31,27.49-27.49,27.49s-27.49-12.31-27.49-27.49
					C1835.26,930.78,1847.57,918.47,1862.75,918.47 M1862.75,912.25c-18.59,0-33.71,15.12-33.71,33.71s15.12,33.71,33.71,33.71
					s33.71-15.12,33.71-33.71S1881.33,912.25,1862.75,912.25L1862.75,912.25z"/>
			</g>
		</g>
	</g>
</g>
<g>
	<path class="st33" d="M1669,1088.87c-4.58,2.71-9.9,4.3-15.61,4.3s-11.03-1.58-15.61-4.3c-23.53,6.77-40.74,28.44-40.74,54.15
		c0,1.62,0.08,3.21,0.22,4.79c15.3,12.5,34.84,20.01,56.14,20.01s40.84-7.51,56.14-20.01c0.13-1.58,0.22-3.18,0.22-4.79
		C1709.74,1117.31,1692.52,1095.64,1669,1088.87z"/>
	<g>
		<g>
			<path class="st33" d="M1653.39,1096.64c-18.86,0-34.2-15.34-34.2-34.2s15.34-34.2,34.2-34.2s34.2,15.34,34.2,34.2
				S1672.24,1096.64,1653.39,1096.64z"/>
			<g>
				<path class="st7" d="M1653.39,1031.73c16.97,0,30.72,13.75,30.72,30.72s-13.75,30.72-30.72,30.72s-30.72-13.75-30.72-30.72
					S1636.42,1031.73,1653.39,1031.73 M1653.39,1024.78c-20.77,0-37.67,16.9-37.67,37.67s16.9,37.67,37.67,37.67
					s37.67-16.9,37.67-37.67S1674.16,1024.78,1653.39,1024.78L1653.39,1024.78z"/>
			</g>
		</g>
	</g>
</g>
<g>
	<path class="st34" d="M1501.56,951c-9.13,5.41-19.75,8.57-31.13,8.57s-22-3.16-31.13-8.57c-46.92,13.51-81.26,56.72-81.26,107.99
		c0,3.22,0.17,6.41,0.43,9.56c30.51,24.93,69.48,39.9,111.96,39.9s81.45-14.97,111.96-39.9c0.27-3.15,0.43-6.34,0.43-9.56
		C1582.82,1007.73,1548.48,964.51,1501.56,951z"/>
	<g>
		<g>
			<circle class="st34" cx="1470.43" cy="898.3" r="68.2"/>
			<g>
				<path class="st7" d="M1470.43,837.03c33.84,0,61.27,27.43,61.27,61.27s-27.43,61.27-61.27,61.27s-61.27-27.43-61.27-61.27
					S1436.59,837.03,1470.43,837.03 M1470.43,823.17c-41.43,0-75.13,33.7-75.13,75.13s33.7,75.13,75.13,75.13
					s75.13-33.7,75.13-75.13S1511.85,823.17,1470.43,823.17L1470.43,823.17z"/>
			</g>
		</g>
	</g>
</g>
<g>
	<path class="st35" d="M1387.63,1145.01c-3.35,1.98-7.25,3.14-11.42,3.14s-8.07-1.16-11.42-3.14
		c-17.21,4.95-29.81,20.81-29.81,39.62c0,1.18,0.06,2.35,0.16,3.51c11.19,9.15,25.49,14.64,41.07,14.64s29.88-5.49,41.08-14.64
		c0.1-1.16,0.16-2.33,0.16-3.51C1417.44,1165.82,1404.84,1149.96,1387.63,1145.01z"/>
	<g>
		<g>
			<circle class="st35" cx="1376.21" cy="1125.67" r="25.02"/>
			<g>
				<path class="st7" d="M1376.21,1103.2c12.41,0,22.48,10.06,22.48,22.48s-10.06,22.48-22.48,22.48s-22.48-10.06-22.48-22.48
					S1363.79,1103.2,1376.21,1103.2 M1376.21,1098.11c-15.2,0-27.56,12.36-27.56,27.56s12.36,27.56,27.56,27.56
					s27.56-12.36,27.56-27.56S1391.41,1098.11,1376.21,1098.11L1376.21,1098.11z"/>
			</g>
		</g>
	</g>
</g>
<g>
	<path class="st29" d="M1253.13,1188.4c-4.34,2.57-9.38,4.07-14.79,4.07s-10.45-1.5-14.79-4.07c-22.29,6.41-38.6,26.94-38.6,51.29
		c0,1.53,0.08,3.04,0.21,4.54c14.49,11.84,33,18.95,53.18,18.95c20.17,0,38.68-7.11,53.18-18.95c0.13-1.5,0.21-3.01,0.21-4.54
		C1291.73,1215.34,1275.42,1194.81,1253.13,1188.4z"/>
	<g>
		<g>
			<circle class="st29" cx="1238.35" cy="1163.37" r="32.39"/>
			<g>
				<path class="st7" d="M1238.35,1134.27c16.07,0,29.1,13.03,29.1,29.1s-13.03,29.1-29.1,29.1s-29.1-13.03-29.1-29.1
					S1222.27,1134.27,1238.35,1134.27 M1238.35,1127.68c-19.68,0-35.69,16.01-35.69,35.69s16.01,35.69,35.69,35.69
					s35.69-16.01,35.69-35.69S1258.02,1127.68,1238.35,1127.68L1238.35,1127.68z"/>
			</g>
		</g>
	</g>
</g>
<g>
	<path class="st36" d="M1259.61,475.19c-6.24,3.69-13.49,5.85-21.26,5.85s-15.02-2.16-21.26-5.85
		c-32.04,9.22-55.49,38.73-55.49,73.74c0,2.2,0.12,4.38,0.3,6.53c20.83,17.02,47.45,27.24,76.45,27.24s55.62-10.22,76.45-27.24
		c0.18-2.15,0.3-4.33,0.3-6.53C1315.09,513.92,1291.65,484.41,1259.61,475.19z"/>
	<g>
		<g>
			<circle class="st36" cx="1238.35" cy="439.2" r="46.57"/>
			<g>
				<path class="st7" d="M1238.35,397.36c23.11,0,41.84,18.73,41.84,41.84c0,23.11-18.73,41.84-41.84,41.84
					s-41.84-18.73-41.84-41.84S1215.24,397.36,1238.35,397.36 M1238.35,387.9c-28.29,0-51.3,23.01-51.3,51.3s23.01,51.3,51.3,51.3
					s51.3-23.02,51.3-51.3S1266.64,387.9,1238.35,387.9L1238.35,387.9z"/>
			</g>
		</g>
	</g>
</g>
<g>
	<path class="st37" d="M892.5,634.88c-5.26,3.12-11.39,4.94-17.95,4.94s-12.68-1.82-17.95-4.94c-27.05,7.78-46.84,32.7-46.84,62.25
		c0,1.86,0.1,3.69,0.25,5.51c17.59,14.37,40.05,23,64.54,23c24.48,0,46.95-8.63,64.54-23c0.15-1.82,0.25-3.65,0.25-5.51
		C939.34,667.58,919.54,642.66,892.5,634.88z"/>
	<g>
		<g>
			<path class="st37" d="M874.55,643.81c-21.68,0-39.31-17.64-39.31-39.31s17.64-39.31,39.31-39.31c21.68,0,39.31,17.64,39.31,39.31
				S896.23,643.81,874.55,643.81z"/>
			<g>
				<path class="st7" d="M874.55,569.18c19.5,0,35.32,15.81,35.32,35.32c0,19.5-15.81,35.32-35.32,35.32S839.23,624,839.23,604.5
					S855.05,569.18,874.55,569.18 M874.55,561.19c-23.88,0-43.31,19.43-43.31,43.31s19.43,43.31,43.31,43.31
					s43.31-19.43,43.31-43.31S898.43,561.19,874.55,561.19L874.55,561.19z"/>
			</g>
		</g>
	</g>
</g>
<g>
	<path class="st38" d="M727.18,755.65c-7.96,4.72-17.23,7.47-27.15,7.47s-19.19-2.76-27.15-7.47
		C631.95,767.42,602,805.12,602,849.83c0,2.81,0.15,5.59,0.38,8.34c26.61,21.74,60.6,34.8,97.64,34.8s71.03-13.05,97.65-34.8
		c0.23-2.75,0.38-5.53,0.38-8.34C798.05,805.12,768.1,767.42,727.18,755.65z"/>
	<g>
		<g>
			<path class="st38" d="M700.03,769.16c-32.8,0-59.48-26.68-59.48-59.48s26.68-59.48,59.48-59.48s59.48,26.68,59.48,59.48
				S732.82,769.16,700.03,769.16z"/>
			<g>
				<path class="st7" d="M700.03,656.25c29.51,0,53.44,23.92,53.44,53.43s-23.92,53.44-53.44,53.44s-53.43-23.92-53.43-53.44
					S670.51,656.25,700.03,656.25 M700.03,644.16c-36.13,0-65.53,29.4-65.53,65.53c0,36.13,29.4,65.53,65.53,65.53
					s65.53-29.4,65.53-65.53C765.55,673.55,736.16,644.16,700.03,644.16L700.03,644.16z"/>
			</g>
		</g>
	</g>
</g>
<text transform="matrix(1 0 0 1 1831.9509 1406.1312)" class="st39 st40 st41">québec</text>
<text transform="matrix(1 0 0 1 1831.9509 1498.0613)" class="st39 st40 st42">1000</text>
<text transform="matrix(1 0 0 1 1831.9509 1566.6312)" class="st39 st40 st43">familles</text>
<text transform="matrix(1 0 0 1 1831.9509 1635.2012)" class="st39 st40 st43">families </text>
</svg>
