<?xml version="1.0" encoding="utf-8"?>
<!-- Generator: Adobe Illustrator 27.2.0, SVG Export Plug-In . SVG Version: 6.00 Build 0)  -->
<svg version="1.1" xmlns="http://www.w3.org/2000/svg" xmlns:xlink="http://www.w3.org/1999/xlink" x="0px" y="0px"
	 viewBox="0 0 2552.59 1853.42" style="enable-background:new 0 0 2552.59 1853.42;" xml:space="preserve">
<style type="text/css">
	.st0{display:none;fill:none;stroke:#8C8C8C;stroke-width:15.3977;stroke-miterlimit:10;}
	.st1{fill:#5D6069;}
	.st2{font-family:'Gotham-Bold';}
	.st3{font-size:483.1428px;}
	.st4{fill:#797A79;}
	.st5{font-family:'Gotham-Book';}
	.st6{font-size:70.4694px;}
	.st7{font-size:128.036px;}
	.st8{font-size:84.246px;}
	.st9{fill:none;stroke:#8C8C8C;stroke-width:7.4813;stroke-miterlimit:10;}
	.st10{fill:none;stroke:#5D6069;stroke-width:10.5579;stroke-miterlimit:10;}
	.st11{fill:#1DABBF;}
	.st12{fill:#FFFFFF;}
	.st13{fill:#0A5B5F;}
	.st14{fill:#C84F27;}
	.st15{fill:#C84F27;stroke:#FFFFFF;stroke-width:3.1845;stroke-miterlimit:10;}
	.st16{fill:#D69129;}
	.st17{fill:#D69129;stroke:#FFFFFF;stroke-width:4.9537;stroke-miterlimit:10;}
	.st18{fill:#DBB927;}
	.st19{fill:#E6B2CA;}
	.st20{fill:#D83A5F;}
	.st21{fill:#DC4C6E;}
	.st22{fill:#B12240;}
	.st23{fill:#CA5838;}
	.st24{fill:#BB3726;}
	.st25{fill:#84378B;}
	.st26{fill:#552669;}
	.st27{fill:#2A8E53;}
	.st28{fill:#94B33D;}
	.st29{fill:#75A03F;}
	.st30{fill:#A9B6BC;}
	.st31{fill:#77828A;}
	.st32{fill:#A3AAAF;}
	.st33{fill:#278041;}
	.st34{fill:#E57DA1;}
	.st35{fill:#D75669;}
	.st36{fill:#92283B;}
	.st37{fill:#A52D45;}
	.st38{fill:#992934;}
	.st39{fill:#90519C;}
	.st40{fill:#612B7D;}
	.st41{fill:#E0B135;}
	.st42{fill:#DAB526;}
	.st43{fill:#4DC7E4;}
</style>
<g id="Layer_1">
</g>
<g id="Layer_2">
</g>
<g id="Layer_4">
	<line class="st0" x1="-1783.07" y1="445.37" x2="-1976.82" y2="512.74"/>
	<line class="st0" x1="-2686" y1="960.69" x2="-2403.34" y2="1019.46"/>
	<line class="st0" x1="-2508.23" y1="812.42" x2="-2227.29" y2="936"/>
	<line class="st0" x1="-1737.83" y1="1019.46" x2="-2011.75" y2="875.74"/>
	<line class="st0" x1="-1771.6" y1="670.95" x2="-1548.11" y2="842.71"/>
</g>
<g id="Layer_3">
	<g>
		<text transform="matrix(1 0 0 1 1101.4092 1119.9921)" class="st1 st2 st3">Q1K</text>
	</g>
	<text transform="matrix(1 0 0 1 2099.6201 830.7567)"><tspan x="0" y="0" class="st4 st5 st6">québec</tspan><tspan x="0" y="116.13" class="st4 st5 st7">1000</tspan><tspan x="0" y="202.74" class="st4 st5 st8">familles</tspan><tspan x="0" y="289.36" class="st4 st5 st8">families </tspan></text>
	<g>
		<line class="st9" x1="596.95" y1="618.9" x2="492.39" y2="696.2"/>
		<line class="st9" x1="824.83" y1="756.22" x2="724.69" y2="714.07"/>
		<line class="st9" x1="980.86" y1="750.37" x2="763.96" y2="616.1"/>
		<line class="st9" x1="457.81" y1="825.11" x2="613.58" y2="923.17"/>
		<line class="st10" x1="698.11" y1="1058.55" x2="634.78" y2="1079.81"/>
		<g>
			<line class="st9" x1="622.78" y1="816.25" x2="453.96" y2="808.22"/>
			<line class="st9" x1="453.96" y1="808.22" x2="492.39" y2="696.2"/>
			<line class="st9" x1="366.75" y1="732.9" x2="455.94" y2="811.17"/>
			<line class="st9" x1="595.09" y1="610.13" x2="759.48" y2="615.66"/>
			<line class="st9" x1="624.54" y1="748.62" x2="595.09" y2="610.13"/>
			<line class="st9" x1="492.39" y1="696.2" x2="624.54" y2="748.62"/>
			<line class="st9" x1="622.78" y1="816.25" x2="492.39" y2="696.2"/>
			<line class="st9" x1="723.79" y1="694.02" x2="759.48" y2="615.66"/>
			<line class="st9" x1="366.75" y1="732.9" x2="492.39" y2="696.2"/>
			<line class="st9" x1="234.67" y1="814.72" x2="366.75" y2="732.9"/>
			<line class="st9" x1="280.8" y1="949.06" x2="234.67" y2="824.55"/>
			<line class="st9" x1="421.19" y1="983.05" x2="503.73" y2="943.7"/>
			<line class="st9" x1="595.09" y1="906.01" x2="503.73" y2="943.7"/>
			<line class="st9" x1="728.91" y1="808.22" x2="723.79" y2="694.02"/>
			<line class="st9" x1="822.15" y1="741.7" x2="728.91" y2="808.22"/>
			<line class="st9" x1="675.57" y1="840.88" x2="592.25" y2="907.18"/>
			<line class="st9" x1="728.91" y1="808.22" x2="675.57" y2="840.88"/>
			<line class="st9" x1="976.99" y1="741.7" x2="822.15" y2="741.7"/>
			<line class="st9" x1="998.8" y1="851.37" x2="976.99" y2="741.7"/>
			<line class="st9" x1="829.24" y1="879.06" x2="998.8" y2="851.37"/>
			<line class="st9" x1="936.76" y1="973.05" x2="829.24" y2="879.06"/>
			<line class="st9" x1="940.3" y1="970.85" x2="836.72" y2="1031.35"/>
			<line class="st9" x1="744.48" y1="985.52" x2="728.91" y2="808.22"/>
			<line class="st9" x1="573.03" y1="1020.32" x2="744.48" y2="985.52"/>
			<line class="st9" x1="480.79" y1="1042.37" x2="573.03" y2="1020.32"/>
			<line class="st9" x1="421.19" y1="983.05" x2="480.79" y2="1042.37"/>
			<line class="st9" x1="464.08" y1="1142.1" x2="482.04" y2="1043.89"/>
			<line class="st9" x1="503.73" y1="943.7" x2="573.03" y2="1020.32"/>
			<line class="st9" x1="634.78" y1="1079.81" x2="573.03" y2="1020.32"/>
			<line class="st9" x1="464.42" y1="1135.17" x2="435.48" y2="1190.99"/>
			<line class="st9" x1="433.92" y1="1258.85" x2="435.48" y2="1190.99"/>
			<line class="st9" x1="382.68" y1="1195.66" x2="433.92" y2="1258.85"/>
			<line class="st9" x1="464.42" y1="1135.17" x2="507.16" y2="1209.32"/>
			<line class="st9" x1="280.8" y1="949.06" x2="455.94" y2="811.17"/>
		</g>
		<g>
			<path class="st11" d="M241.84,804.04c-3.44,2.04-7.44,3.23-11.73,3.23s-8.29-1.19-11.73-3.23c-17.68,5.09-30.63,21.38-30.63,40.7
				c0,1.21,0.06,2.41,0.16,3.6c11.5,9.4,26.19,15.04,42.2,15.04s30.7-5.64,42.2-15.04c0.1-1.19,0.16-2.39,0.16-3.6
				C272.46,825.42,259.52,809.13,241.84,804.04z"/>
			<g>
				<g>
					<path class="st11" d="M230.1,809.88c-14.17,0-25.7-11.53-25.7-25.7s11.53-25.7,25.7-25.7c14.17,0,25.7,11.53,25.7,25.7
						S244.27,809.88,230.1,809.88z"/>
					<g>
						<path class="st12" d="M230.1,761.08c12.75,0,23.09,10.34,23.09,23.09s-10.34,23.09-23.09,23.09
							c-12.75,0-23.09-10.34-23.09-23.09S217.35,761.08,230.1,761.08 M230.1,755.86c-15.61,0-28.32,12.7-28.32,28.32
							s12.7,28.32,28.32,28.32s28.32-12.7,28.32-28.32S245.71,755.86,230.1,755.86L230.1,755.86z"/>
					</g>
				</g>
			</g>
		</g>
		<g>
			<path class="st13" d="M292.05,941.03c-2.72,1.61-5.88,2.55-9.26,2.55s-6.54-0.94-9.26-2.55c-13.96,4.02-24.17,16.87-24.17,32.12
				c0,0.96,0.05,1.91,0.13,2.84c9.08,7.42,20.67,11.87,33.3,11.87s24.23-4.45,33.3-11.87c0.08-0.94,0.13-1.89,0.13-2.84
				C316.22,957.9,306.01,945.04,292.05,941.03z"/>
			<g>
				<g>
					<path class="st13" d="M282.79,945.64c-11.19,0-20.29-9.1-20.29-20.29s9.1-20.29,20.29-20.29s20.29,9.1,20.29,20.29
						S293.98,945.64,282.79,945.64z"/>
					<g>
						<path class="st12" d="M282.79,907.12c10.07,0,18.23,8.16,18.23,18.23s-8.16,18.23-18.23,18.23s-18.23-8.16-18.23-18.23
							S272.72,907.12,282.79,907.12 M282.79,903c-12.32,0-22.35,10.03-22.35,22.35c0,12.32,10.03,22.35,22.35,22.35
							c12.32,0,22.35-10.03,22.35-22.35C305.14,913.02,295.11,903,282.79,903L282.79,903z"/>
					</g>
				</g>
			</g>
		</g>
		<g>
			<path class="st14" d="M372.55,728.63c-2.52,1.49-5.46,2.37-8.6,2.37s-6.08-0.87-8.6-2.37c-12.96,3.73-22.45,15.67-22.45,29.83
				c0,0.89,0.05,1.77,0.12,2.64c8.43,6.89,19.19,11.02,30.93,11.02s22.5-4.13,30.93-11.02c0.07-0.87,0.12-1.75,0.12-2.64
				C394.99,744.3,385.51,732.36,372.55,728.63z"/>
			<g>
				<circle class="st15" cx="363.95" cy="714.07" r="16.92"/>
			</g>
		</g>
		<g>
			<path class="st16" d="M512.02,674.16c-4.65,2.75-10.06,4.36-15.86,4.36c-5.8,0-11.21-1.61-15.86-4.36
				c-23.9,6.88-41.39,28.9-41.39,55.01c0,1.64,0.09,3.26,0.22,4.87c15.54,12.7,35.4,20.32,57.03,20.32s41.49-7.62,57.03-20.32
				c0.14-1.61,0.22-3.23,0.22-4.87C553.41,703.06,535.92,681.04,512.02,674.16z"/>
			<g>
				<circle class="st17" cx="496.16" cy="647.31" r="31.21"/>
			</g>
		</g>
		<g>
			<path class="st18" d="M605.19,602.63c-2.85,1.69-6.16,2.67-9.71,2.67s-6.86-0.99-9.71-2.67c-14.64,4.21-25.36,17.7-25.36,33.7
				c0,1.01,0.05,2,0.14,2.98c9.52,7.78,21.68,12.45,34.94,12.45s25.41-4.67,34.94-12.45c0.08-0.98,0.14-1.98,0.14-2.98
				C630.55,620.33,619.84,606.84,605.19,602.63z"/>
			<g>
				<g>
					<path class="st18" d="M595.48,607.46c-11.73,0-21.28-9.55-21.28-21.28s9.55-21.28,21.28-21.28s21.28,9.55,21.28,21.28
						S607.21,607.46,595.48,607.46z"/>
					<g>
						<path class="st12" d="M595.48,567.06c10.56,0,19.12,8.56,19.12,19.12c0,10.56-8.56,19.12-19.12,19.12s-19.12-8.56-19.12-19.12
							C576.36,575.62,584.92,567.06,595.48,567.06 M595.48,562.74c-12.93,0-23.44,10.52-23.44,23.44
							c0,12.93,10.52,23.44,23.44,23.44c12.93,0,23.44-10.52,23.44-23.44C618.92,573.26,608.41,562.74,595.48,562.74L595.48,562.74z
							"/>
					</g>
				</g>
			</g>
		</g>
		<g>
			<path class="st19" d="M771.1,600.84c-2.09,1.24-4.53,1.96-7.14,1.96s-5.05-0.72-7.14-1.96c-10.76,3.1-18.64,13.01-18.64,24.77
				c0,0.74,0.04,1.47,0.1,2.19c7,5.72,15.93,9.15,25.68,9.15s18.68-3.43,25.68-9.15c0.06-0.72,0.1-1.45,0.1-2.19
				C789.73,613.85,781.86,603.94,771.1,600.84z"/>
			<g>
				<g>
					<path class="st19" d="M763.96,604.4c-8.62,0-15.64-7.02-15.64-15.64s7.02-15.64,15.64-15.64s15.64,7.02,15.64,15.64
						S772.58,604.4,763.96,604.4z"/>
					<g>
						<path class="st12" d="M763.96,574.71c7.76,0,14.05,6.29,14.05,14.05s-6.29,14.05-14.05,14.05c-7.76,0-14.05-6.29-14.05-14.05
							S756.2,574.71,763.96,574.71 M763.96,571.53c-9.5,0-17.23,7.73-17.23,17.23c0,9.5,7.73,17.23,17.23,17.23
							c9.5,0,17.23-7.73,17.23-17.23C781.19,579.26,773.46,571.53,763.96,571.53L763.96,571.53z"/>
					</g>
				</g>
			</g>
		</g>
		<g>
			<path class="st20" d="M738.42,685.76c-3.54,2.1-7.66,3.32-12.07,3.32c-4.41,0-8.53-1.22-12.07-3.32
				c-18.19,5.24-31.5,21.99-31.5,41.87c0,1.25,0.07,2.48,0.17,3.71c11.83,9.67,26.94,15.47,43.41,15.47s31.58-5.8,43.41-15.47
				c0.1-1.22,0.17-2.46,0.17-3.71C769.92,707.75,756.61,690.99,738.42,685.76z"/>
			<g>
				<g>
					<path class="st20" d="M726.35,691.76c-14.58,0-26.44-11.86-26.44-26.44s11.86-26.44,26.44-26.44s26.44,11.86,26.44,26.44
						S740.93,691.76,726.35,691.76z"/>
					<g>
						<path class="st12" d="M726.35,641.57c13.12,0,23.75,10.63,23.75,23.75c0,13.12-10.64,23.75-23.75,23.75
							c-13.12,0-23.75-10.63-23.75-23.75C702.59,652.2,713.23,641.57,726.35,641.57 M726.35,636.19
							c-16.06,0-29.13,13.07-29.13,29.13s13.07,29.13,29.13,29.13s29.13-13.07,29.13-29.13S742.41,636.19,726.35,636.19
							L726.35,636.19z"/>
					</g>
				</g>
			</g>
		</g>
		<g>
			<path class="st21" d="M830.63,737.19c-2.49,1.47-5.38,2.34-8.49,2.34c-3.1,0-6-0.86-8.49-2.34
				c-12.79,3.68-22.15,15.46-22.15,29.44c0,0.88,0.05,1.75,0.12,2.61c8.32,6.8,18.94,10.88,30.52,10.88s22.2-4.08,30.52-10.88
				c0.07-0.86,0.12-1.73,0.12-2.61C852.79,752.65,843.43,740.87,830.63,737.19z"/>
			<g>
				<g>
					<circle class="st21" cx="822.15" cy="722.82" r="18.59"/>
					<g>
						<path class="st12" d="M822.15,706.12c9.22,0,16.7,7.48,16.7,16.7c0,9.22-7.48,16.7-16.7,16.7s-16.7-7.48-16.7-16.7
							C805.44,713.6,812.92,706.12,822.15,706.12 M822.15,702.34c-11.29,0-20.48,9.19-20.48,20.48c0,11.29,9.19,20.48,20.48,20.48
							s20.48-9.19,20.48-20.48C842.63,711.53,833.44,702.34,822.15,702.34L822.15,702.34z"/>
					</g>
				</g>
			</g>
		</g>
		<g>
			<path class="st22" d="M736.85,804.12c-2.3,1.36-4.96,2.15-7.83,2.15c-2.86,0-5.53-0.79-7.83-2.15
				c-11.79,3.39-20.43,14.26-20.43,27.14c0,0.81,0.04,1.61,0.11,2.4c7.67,6.27,17.46,10.03,28.14,10.03s20.47-3.76,28.14-10.03
				c0.07-0.79,0.11-1.59,0.11-2.4C757.28,818.38,748.65,807.51,736.85,804.12z"/>
			<g>
				<g>
					<path class="st22" d="M729.03,808.01c-9.45,0-17.14-7.69-17.14-17.14c0-9.45,7.69-17.14,17.14-17.14s17.14,7.69,17.14,17.14
						C746.17,800.32,738.48,808.01,729.03,808.01z"/>
					<g>
						<path class="st12" d="M729.03,775.47c8.51,0,15.4,6.89,15.4,15.4c0,8.51-6.9,15.4-15.4,15.4c-8.51,0-15.4-6.89-15.4-15.4
							C713.63,782.37,720.52,775.47,729.03,775.47 M729.03,771.99c-10.41,0-18.88,8.47-18.88,18.88c0,10.41,8.47,18.89,18.88,18.89
							c10.41,0,18.89-8.47,18.89-18.89C747.91,780.46,739.44,771.99,729.03,771.99L729.03,771.99z"/>
					</g>
				</g>
			</g>
		</g>
		<g>
			<path class="st23" d="M674.68,823.67c-1.54,0.91-3.33,1.44-5.25,1.44c-1.92,0-3.71-0.53-5.25-1.44
				c-7.91,2.28-13.7,9.57-13.7,18.21c0,0.54,0.03,1.08,0.07,1.61c5.15,4.2,11.72,6.73,18.88,6.73c7.16,0,13.74-2.52,18.88-6.73
				c0.04-0.53,0.07-1.07,0.07-1.61C688.38,833.23,682.59,825.95,674.68,823.67z"/>
			<g>
				<g>
					<path class="st23" d="M669.43,826.28c-6.34,0-11.5-5.16-11.5-11.5s5.16-11.5,11.5-11.5s11.5,5.16,11.5,11.5
						S675.77,826.28,669.43,826.28z"/>
					<g>
						<path class="st12" d="M669.43,804.45c5.71,0,10.33,4.63,10.33,10.33s-4.63,10.33-10.33,10.33c-5.71,0-10.33-4.63-10.33-10.33
							S663.72,804.45,669.43,804.45 M669.43,802.11c-6.99,0-12.67,5.68-12.67,12.67s5.68,12.67,12.67,12.67s12.67-5.68,12.67-12.67
							S676.41,802.11,669.43,802.11L669.43,802.11z"/>
					</g>
				</g>
			</g>
		</g>
		<g>
			<path class="st24" d="M621.81,802.3c-1.67,0.99-3.61,1.57-5.69,1.57c-2.08,0-4.02-0.58-5.69-1.57
				c-8.57,2.47-14.85,10.37-14.85,19.73c0,0.59,0.03,1.17,0.08,1.75c5.58,4.56,12.7,7.29,20.46,7.29c7.76,0,14.88-2.74,20.46-7.29
				c0.05-0.58,0.08-1.16,0.08-1.75C636.66,812.66,630.39,804.77,621.81,802.3z"/>
			<g>
				<g>
					<path class="st24" d="M616.12,805.13c-6.87,0-12.46-5.59-12.46-12.46c0-6.87,5.59-12.46,12.46-12.46s12.46,5.59,12.46,12.46
						C628.59,799.54,623,805.13,616.12,805.13z"/>
					<g>
						<path class="st12" d="M616.12,781.47c6.18,0,11.2,5.01,11.2,11.2c0,6.18-5.01,11.2-11.2,11.2c-6.18,0-11.2-5.01-11.2-11.2
							C604.93,786.48,609.94,781.47,616.12,781.47 M616.12,778.94c-7.57,0-13.73,6.16-13.73,13.73c0,7.57,6.16,13.73,13.73,13.73
							s13.73-6.16,13.73-13.73C629.85,785.1,623.69,778.94,616.12,778.94L616.12,778.94z"/>
					</g>
				</g>
			</g>
		</g>
		<g>
			<path class="st25" d="M620.98,888.65c-4,2.37-8.66,3.76-13.65,3.76s-9.65-1.39-13.65-3.76c-20.58,5.92-35.63,24.87-35.63,47.36
				c0,1.41,0.07,2.81,0.19,4.19c13.38,10.93,30.47,17.5,49.1,17.5s35.72-6.56,49.1-17.5c0.12-1.38,0.19-2.78,0.19-4.19
				C656.62,913.52,641.56,894.57,620.98,888.65z"/>
			<g>
				<g>
					<circle class="st25" cx="607.33" cy="865.54" r="29.91"/>
					<g>
						<path class="st12" d="M607.33,838.67c14.84,0,26.87,12.03,26.87,26.87s-12.03,26.87-26.87,26.87s-26.87-12.03-26.87-26.87
							S592.49,838.67,607.33,838.67 M607.33,832.59c-18.17,0-32.95,14.78-32.95,32.95s14.78,32.95,32.95,32.95
							s32.95-14.78,32.95-32.95S625.5,832.59,607.33,832.59L607.33,832.59z"/>
					</g>
				</g>
			</g>
		</g>
		<g>
			<path class="st26" d="M512.79,937.82c-2.07,1.23-4.48,1.94-7.06,1.94s-4.99-0.72-7.06-1.94c-10.64,3.06-18.42,12.86-18.42,24.48
				c0,0.73,0.04,1.45,0.1,2.17c6.92,5.65,15.75,9.05,25.38,9.05s18.47-3.39,25.39-9.05c0.06-0.72,0.1-1.44,0.1-2.17
				C531.21,950.68,523.43,940.88,512.79,937.82z"/>
			<g>
				<g>
					<path class="st26" d="M505.73,941.33c-8.53,0-15.46-6.94-15.46-15.46s6.94-15.46,15.46-15.46s15.46,6.94,15.46,15.46
						S514.25,941.33,505.73,941.33z"/>
					<g>
						<path class="st12" d="M505.73,911.98c7.67,0,13.89,6.22,13.89,13.89c0,7.67-6.22,13.89-13.89,13.89s-13.89-6.22-13.89-13.89
							C491.84,918.2,498.06,911.98,505.73,911.98 M505.73,908.83c-9.39,0-17.03,7.64-17.03,17.03s7.64,17.03,17.03,17.03
							s17.03-7.64,17.03-17.03S515.12,908.83,505.73,908.83L505.73,908.83z"/>
					</g>
				</g>
			</g>
		</g>
		<g>
			<path class="st27" d="M425.36,979.4c-1.58,0.93-3.41,1.48-5.38,1.48s-3.8-0.55-5.38-1.48c-8.1,2.33-14.04,9.8-14.04,18.65
				c0,0.56,0.03,1.11,0.08,1.65c5.27,4.31,12,6.89,19.34,6.89c7.34,0,14.07-2.59,19.34-6.89c0.05-0.54,0.07-1.09,0.07-1.65
				C439.39,989.2,433.46,981.74,425.36,979.4z"/>
			<g>
				<g>
					<path class="st27" d="M419.98,982.08c-6.5,0-11.78-5.28-11.78-11.78c0-6.5,5.28-11.78,11.78-11.78s11.78,5.28,11.78,11.78
						C431.76,976.8,426.47,982.08,419.98,982.08z"/>
					<g>
						<path class="st12" d="M419.98,959.72c5.84,0,10.58,4.74,10.58,10.58s-4.74,10.58-10.58,10.58s-10.58-4.74-10.58-10.58
							S414.14,959.72,419.98,959.72 M419.98,957.32c-7.16,0-12.98,5.82-12.98,12.98s5.82,12.98,12.98,12.98s12.98-5.82,12.98-12.98
							S427.14,957.32,419.98,957.32L419.98,957.32z"/>
					</g>
				</g>
			</g>
		</g>
		<g>
			<path class="st28" d="M493.4,1038.96c-3.52,2.08-7.61,3.3-11.99,3.3c-4.38,0-8.47-1.22-11.99-3.3
				c-18.07,5.2-31.3,21.85-31.3,41.6c0,1.24,0.06,2.47,0.17,3.68c11.75,9.6,26.77,15.37,43.13,15.37s31.37-5.77,43.13-15.37
				c0.1-1.22,0.17-2.44,0.17-3.68C524.71,1060.81,511.48,1044.16,493.4,1038.96z"/>
			<g>
				<g>
					<path class="st28" d="M481.41,1044.93c-14.49,0-26.27-11.79-26.27-26.27s11.79-26.27,26.27-26.27
						c14.49,0,26.27,11.79,26.27,26.27S495.9,1044.93,481.41,1044.93z"/>
					<g>
						<path class="st12" d="M481.41,995.06c13.03,0,23.6,10.57,23.6,23.6s-10.57,23.6-23.6,23.6s-23.6-10.57-23.6-23.6
							S468.38,995.06,481.41,995.06 M481.41,989.72c-15.96,0-28.94,12.98-28.94,28.94s12.98,28.94,28.94,28.94
							s28.94-12.98,28.94-28.94S497.37,989.72,481.41,989.72L481.41,989.72z"/>
					</g>
				</g>
			</g>
		</g>
		<g>
			<path class="st29" d="M474.38,1135.92c-2.41,1.42-5.2,2.26-8.2,2.26c-3,0-5.8-0.83-8.2-2.26c-12.36,3.56-21.41,14.94-21.41,28.45
				c0,0.85,0.04,1.69,0.11,2.52c8.04,6.57,18.3,10.51,29.49,10.51c11.19,0,21.46-3.94,29.49-10.51c0.07-0.83,0.11-1.67,0.11-2.52
				C495.79,1150.86,486.74,1139.47,474.38,1135.92z"/>
			<g>
				<g>
					<path class="st29" d="M466.18,1140c-9.91,0-17.97-8.06-17.97-17.97c0-9.91,8.06-17.97,17.97-17.97
						c9.91,0,17.97,8.06,17.97,17.97C484.15,1131.94,476.09,1140,466.18,1140z"/>
					<g>
						<path class="st12" d="M466.18,1105.89c8.91,0,16.14,7.23,16.14,16.14s-7.23,16.14-16.14,16.14s-16.14-7.23-16.14-16.14
							S457.27,1105.89,466.18,1105.89 M466.18,1102.24c-10.91,0-19.79,8.88-19.79,19.79c0,10.91,8.88,19.79,19.79,19.79
							c10.91,0,19.79-8.88,19.79-19.79C485.97,1111.12,477.09,1102.24,466.18,1102.24L466.18,1102.24z"/>
					</g>
				</g>
			</g>
		</g>
		<g>
			<path class="st30" d="M441.3,1197.15c-1.78,1.05-3.84,1.67-6.06,1.67s-4.28-0.61-6.06-1.67c-9.13,2.63-15.81,11.04-15.81,21.02
				c0,0.63,0.03,1.25,0.08,1.86c5.94,4.85,13.52,7.77,21.79,7.77s15.85-2.91,21.79-7.77c0.05-0.61,0.08-1.23,0.08-1.86
				C457.12,1208.19,450.43,1199.78,441.3,1197.15z"/>
			<g>
				<g>
					<path class="st30" d="M435.24,1200.17c-7.32,0-13.27-5.95-13.27-13.27s5.95-13.27,13.27-13.27c7.32,0,13.27,5.95,13.27,13.27
						S442.56,1200.17,435.24,1200.17z"/>
					<g>
						<path class="st12" d="M435.24,1174.97c6.59,0,11.92,5.34,11.92,11.92s-5.34,11.92-11.92,11.92s-11.92-5.34-11.92-11.92
							S428.66,1174.97,435.24,1174.97 M435.24,1172.27c-8.06,0-14.62,6.56-14.62,14.62s6.56,14.62,14.62,14.62
							s14.62-6.56,14.62-14.62S443.31,1172.27,435.24,1172.27L435.24,1172.27z"/>
					</g>
				</g>
			</g>
		</g>
		<g>
			<path class="st31" d="M388.37,1191.44c-1.39,0.82-3.01,1.3-4.74,1.3s-3.35-0.48-4.74-1.3c-7.14,2.06-12.37,8.63-12.37,16.44
				c0,0.49,0.03,0.98,0.07,1.46c4.64,3.79,10.58,6.07,17.04,6.07s12.4-2.28,17.04-6.07c0.04-0.48,0.07-0.96,0.07-1.46
				C400.74,1200.07,395.51,1193.5,388.37,1191.44z"/>
			<g>
				<g>
					<path class="st31" d="M383.63,1193.8c-5.72,0-10.38-4.66-10.38-10.38c0-5.72,4.66-10.38,10.38-10.38s10.38,4.66,10.38,10.38
						C394.01,1189.14,389.36,1193.8,383.63,1193.8z"/>
					<g>
						<path class="st12" d="M383.63,1174.09c5.15,0,9.33,4.18,9.33,9.33s-4.18,9.33-9.33,9.33s-9.33-4.18-9.33-9.33
							S378.48,1174.09,383.63,1174.09 M383.63,1171.98c-6.31,0-11.44,5.13-11.44,11.44c0,6.31,5.13,11.44,11.44,11.44
							s11.44-5.13,11.44-11.44C395.07,1177.11,389.94,1171.98,383.63,1171.98L383.63,1171.98z"/>
					</g>
				</g>
			</g>
		</g>
		<g>
			<path class="st1" d="M436.68,1260.94c-1.79,1.06-3.88,1.68-6.12,1.68s-4.32-0.62-6.12-1.68c-9.22,2.65-15.97,11.15-15.97,21.23
				c0,0.63,0.03,1.26,0.09,1.88c6,4.9,13.66,7.84,22.01,7.84s16.01-2.94,22.01-7.84c0.05-0.62,0.09-1.25,0.09-1.88
				C452.65,1272.09,445.9,1263.6,436.68,1260.94z"/>
			<g>
				<g>
					<path class="st1" d="M430.56,1263.99c-7.39,0-13.4-6.01-13.4-13.4c0-7.39,6.01-13.4,13.4-13.4s13.41,6.01,13.41,13.4
						C443.97,1257.97,437.95,1263.99,430.56,1263.99z"/>
					<g>
						<path class="st12" d="M430.56,1238.54c6.65,0,12.04,5.39,12.04,12.04c0,6.65-5.39,12.04-12.04,12.04s-12.04-5.39-12.04-12.04
							C418.52,1243.93,423.91,1238.54,430.56,1238.54 M430.56,1235.82c-8.14,0-14.77,6.62-14.77,14.77
							c0,8.14,6.62,14.77,14.77,14.77s14.77-6.62,14.77-14.77C445.33,1242.44,438.7,1235.82,430.56,1235.82L430.56,1235.82z"/>
					</g>
				</g>
			</g>
		</g>
		<g>
			<path class="st32" d="M510.78,1203.3c-1.48,0.88-3.2,1.39-5.05,1.39s-3.57-0.51-5.05-1.39c-7.61,2.19-13.19,9.2-13.19,17.52
				c0,0.52,0.03,1.04,0.07,1.55c4.95,4.05,11.27,6.47,18.17,6.47c6.89,0,13.22-2.43,18.17-6.47c0.04-0.51,0.07-1.03,0.07-1.55
				C523.97,1212.5,518.39,1205.49,510.78,1203.3z"/>
			<g>
				<g>
					<path class="st32" d="M505.73,1205.81c-6.1,0-11.07-4.96-11.07-11.07c0-6.1,4.96-11.07,11.07-11.07s11.07,4.96,11.07,11.07
						C516.79,1200.85,511.83,1205.81,505.73,1205.81z"/>
					<g>
						<path class="st12" d="M505.73,1184.81c5.49,0,9.94,4.45,9.94,9.94c0,5.49-4.45,9.94-9.94,9.94s-9.94-4.45-9.94-9.94
							C495.79,1189.26,500.24,1184.81,505.73,1184.81 M505.73,1182.56c-6.72,0-12.19,5.47-12.19,12.19
							c0,6.72,5.47,12.19,12.19,12.19c6.72,0,12.19-5.47,12.19-12.19C517.92,1188.03,512.45,1182.56,505.73,1182.56L505.73,1182.56z
							"/>
					</g>
				</g>
			</g>
		</g>
		<g>
			<path class="st33" d="M582.69,1014.16c-2.73,1.62-5.9,2.56-9.3,2.56c-3.4,0-6.57-0.94-9.3-2.56
				c-14.02,4.03-24.28,16.95-24.28,32.26c0,0.96,0.05,1.91,0.13,2.86c9.12,7.45,20.76,11.92,33.45,11.92
				c12.69,0,24.33-4.47,33.45-11.92c0.08-0.94,0.13-1.89,0.13-2.86C606.96,1031.11,596.71,1018.2,582.69,1014.16z"/>
			<g>
				<g>
					<path class="st33" d="M573.39,1018.79c-11.23,0-20.38-9.14-20.38-20.38c0-11.23,9.14-20.38,20.38-20.38
						c11.24,0,20.38,9.14,20.38,20.38C593.76,1009.65,584.62,1018.79,573.39,1018.79z"/>
					<g>
						<path class="st12" d="M573.39,980.11c10.11,0,18.3,8.2,18.3,18.3s-8.2,18.3-18.3,18.3c-10.11,0-18.3-8.2-18.3-18.3
							S563.28,980.11,573.39,980.11 M573.39,975.97c-12.38,0-22.45,10.07-22.45,22.45c0,12.38,10.07,22.45,22.45,22.45
							s22.45-10.07,22.45-22.45C595.83,986.04,585.76,975.97,573.39,975.97L573.39,975.97z"/>
					</g>
				</g>
			</g>
		</g>
		<g>
			<path class="st34" d="M990.98,734.63c-2.97,1.76-6.42,2.79-10.13,2.79c-3.7,0-7.16-1.03-10.13-2.79
				c-15.26,4.39-26.43,18.45-26.43,35.12c0,1.05,0.05,2.08,0.14,3.11c9.92,8.11,22.6,12.98,36.42,12.98s26.49-4.87,36.42-12.98
				c0.09-1.03,0.14-2.06,0.14-3.11C1017.41,753.08,1006.24,739.02,990.98,734.63z"/>
			<g>
				<g>
					<circle class="st34" cx="980.86" cy="717.49" r="22.18"/>
					<g>
						<path class="st12" d="M980.86,697.56c11.01,0,19.93,8.92,19.93,19.93c0,11.01-8.92,19.93-19.93,19.93s-19.93-8.92-19.93-19.93
							C960.93,706.48,969.85,697.56,980.86,697.56 M980.86,693.05c-13.47,0-24.44,10.96-24.44,24.44
							c0,13.47,10.96,24.44,24.44,24.44s24.44-10.96,24.44-24.44C1005.29,704.01,994.33,693.05,980.86,693.05L980.86,693.05z"/>
					</g>
				</g>
			</g>
		</g>
		<g>
			<path class="st35" d="M1012.27,846.58c-3.37,1.99-7.28,3.16-11.48,3.16c-4.2,0-8.11-1.17-11.48-3.16
				c-17.3,4.98-29.96,20.92-29.96,39.82c0,1.19,0.06,2.36,0.16,3.53c11.25,9.19,25.62,14.71,41.29,14.71s30.03-5.52,41.29-14.71
				c0.1-1.16,0.16-2.34,0.16-3.53C1042.23,867.49,1029.57,851.56,1012.27,846.58z"/>
			<g>
				<g>
					<path class="st35" d="M1000.78,852.29c-13.87,0-25.15-11.28-25.15-25.15s11.28-25.15,25.15-25.15s25.15,11.28,25.15,25.15
						S1014.65,852.29,1000.78,852.29z"/>
					<g>
						<path class="st12" d="M1000.78,804.55c12.48,0,22.59,10.12,22.59,22.59c0,12.48-10.12,22.59-22.59,22.59
							c-12.48,0-22.59-10.12-22.59-22.59C978.19,814.66,988.31,804.55,1000.78,804.55 M1000.78,799.44
							c-15.28,0-27.71,12.43-27.71,27.71c0,15.28,12.43,27.71,27.71,27.71c15.28,0,27.71-12.43,27.71-27.71
							C1028.49,811.86,1016.06,799.44,1000.78,799.44L1000.78,799.44z"/>
					</g>
				</g>
			</g>
		</g>
		<g>
			<path class="st36" d="M846.8,868.64c-4.14,2.45-8.95,3.88-14.11,3.88s-9.97-1.43-14.11-3.88c-21.27,6.12-36.83,25.71-36.83,48.95
				c0,1.46,0.08,2.9,0.2,4.33c13.83,11.3,31.5,18.09,50.75,18.09c19.25,0,36.92-6.79,50.75-18.09c0.12-1.43,0.2-2.87,0.2-4.33
				C883.64,894.35,868.07,874.76,846.8,868.64z"/>
			<g>
				<g>
					<path class="st36" d="M832.69,875.66c-17.05,0-30.92-13.87-30.92-30.92s13.87-30.92,30.92-30.92s30.92,13.87,30.92,30.92
						S849.73,875.66,832.69,875.66z"/>
					<g>
						<path class="st12" d="M832.69,816.98c15.34,0,27.77,12.43,27.77,27.77c0,15.34-12.43,27.77-27.77,27.77
							c-15.34,0-27.77-12.43-27.77-27.77C804.91,829.41,817.35,816.98,832.69,816.98 M832.69,810.69
							c-18.78,0-34.06,15.28-34.06,34.06c0,18.78,15.28,34.06,34.06,34.06c18.78,0,34.06-15.28,34.06-34.06
							C866.74,825.97,851.47,810.69,832.69,810.69L832.69,810.69z"/>
					</g>
				</g>
			</g>
		</g>
		<g>
			<path class="st37" d="M944.07,968.78c-1.99,1.18-4.31,1.87-6.79,1.87s-4.8-0.69-6.79-1.87c-10.23,2.94-17.71,12.36-17.71,23.54
				c0,0.7,0.04,1.4,0.09,2.08c6.65,5.43,15.15,8.7,24.41,8.7s17.75-3.26,24.41-8.7c0.06-0.69,0.09-1.38,0.09-2.08
				C961.79,981.14,954.3,971.72,944.07,968.78z"/>
			<g>
				<g>
					<path class="st37" d="M937.29,972.16c-8.2,0-14.87-6.67-14.87-14.87c0-8.2,6.67-14.87,14.87-14.87
						c8.2,0,14.87,6.67,14.87,14.87C952.15,965.49,945.48,972.16,937.29,972.16z"/>
					<g>
						<path class="st12" d="M937.28,943.93c7.38,0,13.36,5.98,13.36,13.36c0,7.38-5.98,13.36-13.36,13.36s-13.36-5.98-13.36-13.36
							C923.93,949.91,929.91,943.93,937.28,943.93 M937.28,940.91c-9.03,0-16.38,7.35-16.38,16.38c0,9.03,7.35,16.38,16.38,16.38
							s16.38-7.35,16.38-16.38C953.66,948.26,946.32,940.91,937.28,940.91L937.28,940.91z"/>
					</g>
				</g>
			</g>
		</g>
		<g>
			<path class="st38" d="M843.15,1026.73c-2.22,1.32-4.81,2.09-7.58,2.09s-5.36-0.77-7.58-2.09c-11.43,3.29-19.8,13.82-19.8,26.31
				c0,0.79,0.04,1.56,0.11,2.33c7.43,6.07,16.93,9.72,27.28,9.72s19.84-3.65,27.28-9.72c0.06-0.77,0.11-1.54,0.11-2.33
				C862.94,1040.54,854.58,1030.02,843.15,1026.73z"/>
			<g>
				<g>
					<path class="st38" d="M835.56,1030.5c-9.16,0-16.61-7.45-16.61-16.61c0-9.16,7.45-16.61,16.61-16.61s16.61,7.45,16.61,16.61
						C852.18,1023.05,844.72,1030.5,835.56,1030.5z"/>
					<g>
						<path class="st12" d="M835.56,998.96c8.24,0,14.93,6.68,14.93,14.93s-6.68,14.93-14.93,14.93s-14.93-6.68-14.93-14.93
							S827.32,998.96,835.56,998.96 M835.56,995.58c-10.09,0-18.3,8.21-18.3,18.3c0,10.09,8.21,18.3,18.3,18.3
							c10.09,0,18.3-8.21,18.3-18.3C853.87,1003.79,845.66,995.58,835.56,995.58L835.56,995.58z"/>
					</g>
				</g>
			</g>
		</g>
		<g>
			<path class="st39" d="M761.79,959.74c-4.44,2.63-9.6,4.16-15.13,4.16c-5.53,0-10.69-1.54-15.13-4.16
				c-22.8,6.56-39.48,27.56-39.48,52.47c0,1.57,0.08,3.11,0.21,4.65c14.83,12.11,33.76,19.39,54.4,19.39
				c20.64,0,39.57-7.27,54.4-19.39c0.13-1.53,0.21-3.08,0.21-4.65C801.28,987.3,784.59,966.3,761.79,959.74z"/>
			<g>
				<g>
					<path class="st39" d="M746.67,967.27c-18.27,0-33.14-14.87-33.14-33.14s14.87-33.14,33.14-33.14
						c18.27,0,33.14,14.87,33.14,33.14S764.94,967.27,746.67,967.27z"/>
					<g>
						<path class="st12" d="M746.67,904.36c16.44,0,29.77,13.33,29.77,29.77c0,16.44-13.33,29.77-29.77,29.77
							c-16.44,0-29.77-13.33-29.77-29.77C716.9,917.69,730.23,904.36,746.67,904.36 M746.67,897.63
							c-20.13,0-36.51,16.38-36.51,36.51c0,20.13,16.38,36.51,36.51,36.51c20.13,0,36.51-16.38,36.51-36.51
							C783.17,914,766.8,897.63,746.67,897.63L746.67,897.63z"/>
					</g>
				</g>
			</g>
		</g>
		<g>
			<path class="st40" d="M706.44,1054c-1.63,0.96-3.52,1.53-5.55,1.53s-3.92-0.56-5.55-1.53c-8.36,2.41-14.48,10.11-14.48,19.25
				c0,0.57,0.03,1.14,0.08,1.7c5.44,4.44,12.39,7.11,19.96,7.11s14.52-2.67,19.96-7.11c0.05-0.56,0.08-1.13,0.08-1.7
				C720.92,1064.11,714.8,1056.41,706.44,1054z"/>
			<g>
				<g>
					<path class="st40" d="M700.89,1056.76c-6.7,0-12.16-5.45-12.16-12.16c0-6.7,5.45-12.16,12.16-12.16
						c6.7,0,12.16,5.45,12.16,12.16C713.05,1051.31,707.59,1056.76,700.89,1056.76z"/>
					<g>
						<path class="st12" d="M700.89,1033.68c6.03,0,10.92,4.89,10.92,10.92s-4.89,10.92-10.92,10.92s-10.92-4.89-10.92-10.92
							S694.86,1033.68,700.89,1033.68 M700.89,1031.21c-7.38,0-13.39,6.01-13.39,13.39c0,7.38,6.01,13.39,13.39,13.39
							s13.39-6.01,13.39-13.39C714.28,1037.22,708.27,1031.21,700.89,1031.21L700.89,1031.21z"/>
					</g>
				</g>
			</g>
		</g>
		<g>
			<path class="st34" d="M641.09,1075.08c-2.11,1.25-4.56,1.98-7.18,1.98s-5.08-0.73-7.18-1.98c-10.83,3.12-18.75,13.09-18.75,24.92
				c0,0.74,0.04,1.48,0.1,2.21c7.04,5.75,16.03,9.21,25.84,9.21s18.8-3.45,25.84-9.21c0.06-0.73,0.1-1.46,0.1-2.21
				C659.84,1088.17,651.92,1078.2,641.09,1075.08z"/>
			<g>
				<g>
					<path class="st34" d="M633.91,1078.66c-8.68,0-15.74-7.06-15.74-15.74s7.06-15.74,15.74-15.74c8.68,0,15.74,7.06,15.74,15.74
						S642.58,1078.66,633.91,1078.66z"/>
					<g>
						<path class="st12" d="M633.91,1048.78c7.81,0,14.14,6.33,14.14,14.14s-6.33,14.14-14.14,14.14c-7.81,0-14.14-6.33-14.14-14.14
							S626.1,1048.78,633.91,1048.78 M633.91,1045.58c-9.56,0-17.34,7.78-17.34,17.34s7.78,17.34,17.34,17.34
							c9.56,0,17.34-7.78,17.34-17.34S643.47,1045.58,633.91,1045.58L633.91,1045.58z"/>
					</g>
				</g>
			</g>
		</g>
		<g>
			<path class="st41" d="M644.24,728.55c-3.03,1.79-6.55,2.84-10.33,2.84c-3.78,0-7.3-1.05-10.33-2.84
				c-15.57,4.48-26.96,18.82-26.96,35.83c0,1.07,0.06,2.13,0.14,3.17c10.12,8.27,23.05,13.24,37.15,13.24
				c14.09,0,27.02-4.97,37.15-13.24c0.09-1.05,0.14-2.1,0.14-3.17C671.2,747.37,659.8,733.03,644.24,728.55z"/>
			<g>
				<g>
					<path class="st41" d="M633.91,733.7c-12.48,0-22.63-10.15-22.63-22.63c0-12.48,10.15-22.63,22.63-22.63
						c12.48,0,22.63,10.15,22.63,22.63C656.53,723.54,646.38,733.7,633.91,733.7z"/>
					<g>
						<path class="st12" d="M633.91,690.74c11.23,0,20.33,9.1,20.33,20.33s-9.1,20.33-20.33,20.33c-11.23,0-20.33-9.1-20.33-20.33
							S622.68,690.74,633.91,690.74 M633.91,686.14c-13.74,0-24.93,11.18-24.93,24.93S620.16,736,633.91,736
							c13.74,0,24.93-11.18,24.93-24.93S647.65,686.14,633.91,686.14L633.91,686.14z"/>
					</g>
				</g>
			</g>
		</g>
		<g>
			<path class="st42" d="M465.87,806.14c-2.56,1.51-5.53,2.4-8.72,2.4s-6.16-0.88-8.72-2.4c-13.14,3.78-22.76,15.89-22.76,30.24
				c0,0.9,0.05,1.79,0.12,2.68c8.55,6.98,19.46,11.17,31.36,11.17s22.81-4.19,31.36-11.17c0.07-0.88,0.12-1.78,0.12-2.68
				C488.63,822.03,479.01,809.92,465.87,806.14z"/>
			<g>
				<g>
					<circle class="st42" cx="457.15" cy="791.38" r="19.1"/>
					<g>
						<path class="st12" d="M457.15,774.22c9.48,0,17.16,7.68,17.16,17.16c0,9.48-7.68,17.16-17.16,17.16s-17.16-7.68-17.16-17.16
							C439.99,781.91,447.67,774.22,457.15,774.22 M457.15,770.34c-11.6,0-21.04,9.44-21.04,21.04s9.44,21.04,21.04,21.04
							s21.04-9.44,21.04-21.04S468.75,770.34,457.15,770.34L457.15,770.34z"/>
					</g>
				</g>
			</g>
		</g>
		<g>
			<path class="st43" d="M385.55,864.82c-3.87,2.29-8.37,3.63-13.19,3.63s-9.32-1.34-13.19-3.63
				c-19.88,5.72-34.43,24.04-34.43,45.76c0,1.37,0.07,2.71,0.18,4.05c12.93,10.56,29.44,16.91,47.44,16.91s34.51-6.34,47.44-16.91
				c0.11-1.34,0.18-2.69,0.18-4.05C419.98,888.86,405.43,870.54,385.55,864.82z"/>
			<g>
				<g>
					<path class="st43" d="M372.35,871.39c-15.94,0-28.9-12.96-28.9-28.9s12.96-28.9,28.9-28.9s28.9,12.96,28.9,28.9
						S388.29,871.39,372.35,871.39z"/>
					<g>
						<path class="st12" d="M372.35,816.53c14.34,0,25.96,11.62,25.96,25.96c0,14.34-11.62,25.96-25.96,25.96
							s-25.96-11.62-25.96-25.96C346.39,828.15,358.01,816.53,372.35,816.53 M372.35,810.65c-17.55,0-31.84,14.28-31.84,31.84
							s14.28,31.84,31.84,31.84s31.84-14.28,31.84-31.84S389.91,810.65,372.35,810.65L372.35,810.65z"/>
					</g>
				</g>
			</g>
		</g>
	</g>
</g>
</svg>
